<?xml version="1.0" encoding="UTF-8"?>
<!DOCTYPE svg PUBLIC "-//W3C//DTD SVG 1.1//EN" "http://www.w3.org/Graphics/SVG/1.1/DTD/svg11.dtd">
<svg xmlns="http://www.w3.org/2000/svg" version="1.1" width="236px" height="209px" style="shape-rendering:geometricPrecision; text-rendering:geometricPrecision; image-rendering:optimizeQuality; fill-rule:evenodd; clip-rule:evenodd" xmlns:xlink="http://www.w3.org/1999/xlink">
<g><path style="opacity:0.955" fill="#fefffe" d="M 92.5,-0.5 C 94.5,-0.5 96.5,-0.5 98.5,-0.5C 129.222,4.02817 155.556,17.3615 177.5,39.5C 172.079,43.2093 166.079,45.2093 159.5,45.5C 147.691,45.0441 136.025,43.5441 124.5,41C 112.769,37.9773 109.102,30.8106 113.5,19.5C 111.49,16.9828 108.823,15.4828 105.5,15C 82.1202,13.0742 67.7868,23.4075 62.5,46C 64.0557,54.8822 68.7224,61.5488 76.5,66C 81.2609,68.5872 86.2609,70.5872 91.5,72C 118.107,74.6933 144.774,76.6933 171.5,78C 206.043,81.0661 227.376,99.2327 235.5,132.5C 235.5,138.5 235.5,144.5 235.5,150.5C 228.214,182.838 208.214,202.171 175.5,208.5C 170.5,208.5 165.5,208.5 160.5,208.5C 149.967,206.573 140.3,202.406 131.5,196C 119.212,186.049 108.712,174.549 100,161.5C 81.774,141.61 60.6073,137.776 36.5,150C 23.8062,157.741 20.6396,168.241 27,181.5C 33.979,189.444 42.8123,193.444 53.5,193.5C 71.742,191.086 88.742,185.086 104.5,175.5C 107.167,177.5 109.5,179.833 111.5,182.5C 85.3902,204.276 55.7236,211.109 22.5,203C 10.9493,199.281 3.28261,191.781 -0.5,180.5C -0.5,176.167 -0.5,171.833 -0.5,167.5C 8.08323,144.105 24.7499,129.605 49.5,124C 72.832,120.113 93.4987,125.78 111.5,141C 121.869,151.701 131.869,162.701 141.5,174C 152.589,181.754 164.922,185.087 178.5,184C 201.061,175.052 210.228,158.552 206,134.5C 203.261,125.176 197.761,118.009 189.5,113C 181.602,108.812 173.268,105.812 164.5,104C 143.913,100.49 123.246,97.4901 102.5,95C 88.2271,93.0158 74.5605,89.0158 61.5,83C 46.6398,72.1037 41.1398,57.6037 45,39.5C 53.1529,16.8328 68.9862,3.49947 92.5,-0.5 Z M 143.5,24.5 C 146.482,26.4742 149.482,28.4742 152.5,30.5C 146.3,33.1969 143.3,31.1969 143.5,24.5 Z"/></g>
<g><path style="opacity:0.865" fill="#fefffe" d="M 163.5,129.5 C 176.53,127.337 187.03,131.337 195,141.5C 196.707,143.909 197.54,146.575 197.5,149.5C 196.325,149.719 195.325,149.386 194.5,148.5C 189.113,138.473 180.78,134.306 169.5,136C 155.266,140.282 143.599,148.282 134.5,160C 131.564,159.107 129.064,157.274 127,154.5C 136.454,142.601 148.621,134.268 163.5,129.5 Z"/></g>
</svg>
